<?xml version="1.0" encoding="utf-8"?>
<!-- Generator: Adobe Illustrator 26.0.3, SVG Export Plug-In . SVG Version: 6.00 Build 0)  -->
<svg version="1.1" id="Ebene_1" xmlns="http://www.w3.org/2000/svg" xmlns:xlink="http://www.w3.org/1999/xlink" x="0px" y="0px"
	 viewBox="0 0 127.5 64" style="enable-background:new 0 0 127.5 64;" xml:space="preserve">
<style type="text/css">
	.st0{fill:#FFFFFF;}
</style>
<g>
	<polygon class="st0" points="1.7,9.8 1.7,18.1 0,18.1 0,0.4 1.7,0.4 1.7,8.7 10,0.4 12.2,0.4 3.5,9.2 12.2,18.1 10,18.1 	"/>
	<path class="st0" d="M22.4,0c-5.7,0-9.1,4.4-9.1,9.2s3.4,9.2,9.1,9.2s9.1-4.4,9.1-9.2C31.6,4.4,28.1,0,22.4,0z M22.4,16.9
		c-4.5,0-7.3-3.7-7.3-7.6s2.7-7.6,7.3-7.6s7.3,3.7,7.3,7.6C29.8,13.2,27,16.9,22.4,16.9z"/>
	<polygon class="st0" points="45.8,15.1 45.8,0.4 47.5,0.4 47.5,18.1 45.6,18.1 36.7,3.4 36.7,18.1 35,18.1 35,0.4 36.9,0.4 	"/>
	<path class="st0" d="M61.6,9.9h8.6v1.6h-1.9c-0.6,4.2-3.4,7-8.4,7c-5.8,0-9-4.4-9-9.2S54.4,0,60,0c3.8,0,6.7,2.2,7.3,4.9h-1.7
		c-0.5-1.9-2.7-3.4-5.5-3.4c-4.5,0-7.3,3.7-7.3,7.6s2.5,7.6,7.5,7.6c3.8,0,5.9-2.3,6.3-5.4h-4.9L61.6,9.9L61.6,9.9z"/>
	<path class="st0" d="M85,6.2c0-3.1-2.3-5.8-5.9-5.8H73v17.7h1.7v-6h4.4l3.8,6h2l-4-6.2C83.5,11.1,85,8.9,85,6.2z M74.8,10.5V1.9
		h4.4c2.6,0,4.2,2,4.2,4.3s-1.6,4.3-4.2,4.3L74.8,10.5L74.8,10.5z"/>
	<polygon class="st0" points="90.3,1.9 90.3,8.5 98.2,8.5 98.2,10.1 90.3,10.1 90.3,16.5 98.2,16.5 98.2,18.1 88.6,18.1 88.6,0.4 
		98.2,0.4 98.2,1.9 	"/>
	<path class="st0" d="M102.5,12.6c0,2.6,1.8,4.3,4.5,4.3c2.5,0,4.1-1.3,4.1-3.4c0-2.5-2.1-3.1-3.9-3.6c-3.1-0.9-5.8-1.7-5.8-5.3
		c0-2.7,2.2-4.6,5.5-4.6c3.3,0,5.4,2.1,5.5,5.3h-1.7c0-2.3-1.4-3.7-3.7-3.7c-2.4,0-3.8,1.3-3.8,3c0,2.4,1.9,3,4,3.6
		c2.7,0.8,5.8,1.7,5.8,5.2c0,3.3-2.5,5.1-5.9,5.1c-3.6,0-6.2-2.3-6.2-5.8L102.5,12.6L102.5,12.6z"/>
	<path class="st0" d="M117,12.6c0,2.6,1.8,4.3,4.5,4.3c2.5,0,4.1-1.3,4.1-3.4c0-2.5-2.1-3.1-3.9-3.6C118.7,9,116,8.3,116,4.6
		c0-2.7,2.2-4.6,5.5-4.6c3.3,0,5.4,2.1,5.5,5.3h-1.7c0-2.3-1.4-3.7-3.7-3.7c-2.4,0-3.8,1.3-3.8,3c0,2.4,1.9,3,4,3.6
		c2.7,0.8,5.8,1.7,5.8,5.2c0,3.3-2.5,5.1-5.9,5.1c-3.6,0-6.2-2.3-6.2-5.8L117,12.6L117,12.6z"/>
	<g>
		<g>
			<path class="st0" d="M13.9,34.4H0v-1.5h13.9V34.4z"/>
		</g>
	</g>
	<polygon class="st0" points="15.8,23.1 28.6,23.1 18.2,39.3 28.9,39.3 28.9,40.9 15.2,40.9 25.7,24.7 15.8,24.7 	"/>
	<polygon class="st0" points="33.4,24.7 33.4,31.3 41.4,31.3 41.4,32.8 33.4,32.8 33.4,39.3 41.4,39.3 41.4,40.9 31.7,40.9 
		31.7,23.1 41.4,23.1 41.4,24.7 	"/>
	<polygon class="st0" points="56.5,37.8 56.5,23.1 58.3,23.1 58.3,40.9 56.4,40.9 47.5,26.1 47.5,40.9 45.8,40.9 45.8,23.1 
		47.7,23.1 	"/>
	<polygon class="st0" points="66.7,24.7 61.9,24.7 61.9,23.1 73.2,23.1 73.2,24.7 68.4,24.7 68.4,40.9 66.7,40.9 	"/>
	<path class="st0" d="M88.8,29c0-3.1-2.3-5.8-5.9-5.8h-6.1v17.7h1.7v-6h4.4l3.8,6h2l-4-6.2C87.1,33.9,88.8,31.6,88.8,29z M78.5,33.3
		v-8.6h4.4c2.6,0,4.2,2,4.2,4.3s-1.6,4.3-4.2,4.3L78.5,33.3L78.5,33.3z"/>
	<path class="st0" d="M93,23.1h1.7v12.1c0,2.4,1.7,4.4,4.2,4.4c2.6,0,4.3-2,4.3-4.4V23.1h1.7v12.1c0,3.2-2.3,5.9-6,5.9
		c-3.6,0-5.9-2.7-5.9-5.9V23.1z"/>
	<polygon class="st0" points="126.6,40.9 124.9,40.9 124.9,27.1 119.1,40.9 117.8,40.9 112.1,27.1 112.1,40.9 110.3,40.9 
		110.3,23.1 112,23.1 118.5,38.2 124.9,23.1 126.6,23.1 	"/>
	<polygon class="st0" points="1.8,55.3 1.8,63.6 0,63.6 0,45.9 1.8,45.9 1.8,54.2 10,45.9 12.2,45.9 3.5,54.7 12.2,63.6 10,63.6 	
		"/>
	<path class="st0" d="M27.5,51.8c0-3.1-2.3-5.8-5.9-5.8h-6.1v17.7h1.7v-6h4.4l3.8,6h2l-4-6.2C25.9,56.6,27.5,54.4,27.5,51.8z
		 M17.2,56.1v-8.6h4.4c2.6,0,4.2,2,4.2,4.3s-1.6,4.3-4.2,4.3L17.2,56.1L17.2,56.1z"/>
	<polygon class="st0" points="33.5,47.5 33.5,54 41.4,54 41.4,55.6 33.5,55.6 33.5,62 41.4,62 41.4,63.6 31.8,63.6 31.8,45.9 
		41.4,45.9 41.4,47.5 	"/>
	<path class="st0" d="M45.8,45.9h1.7v12.1c0,2.4,1.7,4.4,4.2,4.4c2.6,0,4.3-2,4.3-4.4V45.9h1.7v12.1c0,3.2-2.3,5.9-6,5.9
		c-3.6,0-5.9-2.7-5.9-5.9V45.9z"/>
	<polygon class="st0" points="60.9,45.9 73.8,45.9 63.3,62 74,62 74,63.6 60.4,63.6 70.8,47.5 60.9,47.5 	"/>
</g>
</svg>
